<svg width="87" height="20" viewBox="0 0 87 20" fill="none" xmlns="http://www.w3.org/2000/svg">
<path d="M0.787109 16.7167C0.787109 20.1201 2.22876 20.7112 4.15799 19.2534L12.8553 12.5526C13.9544 11.7335 14.4367 10.8535 14.4367 10H0.787109V16.7167Z" fill="#009F9F"/>
<path d="M19.4521 16.7167C19.4521 20.1201 18.0105 20.7112 16.0813 19.2534L7.38391 12.5526C6.28488 11.7335 5.80257 10.8535 5.80257 10H19.4311L19.4521 16.7167Z" fill="#EF4923"/>
<path d="M19.4521 3.28328C19.4521 -0.120145 18.0105 -0.711239 16.0813 0.746613L7.38391 7.44743C6.28488 8.26648 5.80257 9.1465 5.80257 10H19.4311L19.4521 3.28328Z" fill="#F8971D"/>
<path d="M0.787109 3.28328C0.787109 -0.120145 2.22876 -0.711239 4.15799 0.746613L12.8553 7.44743C13.9544 8.26648 14.4367 9.1465 14.4367 10H0.787109V3.28328Z" fill="#082F4D"/>
<path d="M25.0606 2.81412C25.0606 1.81217 25.3031 1.56832 26.2967 1.56832H26.7158C27.7094 1.56832 27.9518 1.81217 27.9518 2.81412V7.01803C28.6582 6.23874 29.8732 5.75103 31.3306 5.75103C33.0965 5.75103 35.0837 6.57538 35.0837 9.57855V15.8977C35.0837 16.8996 34.8412 17.1435 33.8476 17.1435H33.4285C32.4349 17.1435 32.1925 16.8996 32.1925 15.8977V10.0901C32.1925 8.84432 31.4861 8.49974 30.3476 8.49974C29.0667 8.49974 27.9756 9.01131 27.9756 11.1928V15.9109C27.9756 16.9129 27.7331 17.1567 26.7395 17.1567H26.3204C25.3268 17.1567 25.0844 16.9129 25.0844 15.9109L25.0606 2.81412Z" fill="#082F4D"/>
<path d="M40.1439 13.3C40.1439 14.4345 40.476 15.0574 42.2867 15.0574C44.0973 15.0574 44.3951 14.4345 44.3951 13.3V7.64887C44.3951 6.64693 44.6376 6.40307 45.6312 6.40307H46.0502C47.0438 6.40307 47.2863 6.64693 47.2863 7.64887V13.3C47.2863 16.282 45.784 17.8061 42.2972 17.8061C38.9632 17.8061 37.2633 16.2157 37.2633 13.3V7.64887C37.2633 6.64693 37.5057 6.40307 38.4994 6.40307H38.9184C39.912 6.40307 40.1545 6.64693 40.1545 7.64887L40.1439 13.3Z" fill="#082F4D"/>
<path d="M57.0801 11.0735C57.0801 9.65012 56.7058 8.87083 54.7081 8.87083C52.7103 8.87083 52.3018 9.65012 52.3018 11.0735V12.8521C52.3018 14.2755 52.7208 15.0548 54.7081 15.0548C56.7401 15.0548 57.0801 14.2755 57.0801 12.8521V11.0735ZM49.4369 3.19846C49.4369 2.19652 49.6794 1.95266 50.673 1.95266H51.071C52.0646 1.95266 52.3071 2.19652 52.3071 3.19846V7.40238C52.8816 6.62309 53.8093 6.13537 55.3327 6.13537C58.4031 6.13537 59.9686 7.95901 59.9686 11.1424V12.9157C59.9686 16.4093 58.0025 17.7876 54.6975 17.7876C51.7826 17.7876 49.4422 16.4066 49.4422 12.9157L49.4369 3.19846Z" fill="#082F4D"/>
<path d="M67.9254 14.901C67.415 14.9942 66.897 15.0386 66.3783 15.0336C65.5613 15.0336 65.0184 14.6757 64.9894 13.6287C65.0015 13.5721 65.0077 13.5144 65.0078 13.4564V9.13854H67.5037C68.4973 9.13854 68.7398 8.89469 68.7398 7.89274V7.64889C68.7398 6.64694 68.4973 6.40308 67.5037 6.40308H65.0078V4.73318C65.0078 3.73124 64.7653 3.48738 63.7717 3.48738H63.3659C62.3723 3.48738 62.1298 3.73124 62.1298 4.73318V6.2626L62.1087 6.40043V13.5201C62.1087 13.7233 62.1157 13.9177 62.1298 14.1032C62.1258 14.308 62.1506 14.5124 62.2036 14.7102C62.6068 17.0189 64.2488 17.769 66.3704 17.769C66.8894 17.7822 67.4082 17.7377 67.9175 17.6365C68.89 17.4377 69.1325 17.0587 69.1325 16.0461V15.8023C69.1325 14.8003 68.89 14.7128 67.9175 14.8904" fill="#082F4D"/>
<path d="M73.2044 10.6733H77.5557V10.3393C77.5557 9.22867 76.8257 8.64817 75.3708 8.64817C73.916 8.64817 73.207 9.22601 73.207 10.3393L73.2044 10.6733ZM80.2493 11.8077C80.1175 12.8309 79.8302 13.0297 78.8129 13.0297H73.2044V13.3637C73.2044 14.5193 74.0425 15.0548 76.1035 15.0548C77.0024 15.0409 77.8976 14.937 78.776 14.7446C79.7485 14.5458 79.9462 14.8109 79.9462 15.8049V16.0488C79.9462 17.0507 79.7485 17.2495 78.776 17.496C77.892 17.6952 76.9883 17.7921 76.0824 17.7849C72.1739 17.7849 70.3185 16.3615 70.3185 12.9131V11.1318C70.3185 8.26118 71.6204 6.12477 75.4631 6.12477C78.6864 6.12477 80.2993 7.77082 80.2993 10.9304C80.3014 11.2199 80.2864 11.5094 80.2545 11.7971" fill="#082F4D"/>
<path d="M82.2365 3.19846C82.2365 2.19652 82.4789 1.95266 83.4726 1.95266H83.8705C84.8641 1.95266 85.1066 2.19652 85.1066 3.19846V13.5227C85.1066 14.6784 85.415 15.0124 86.0791 15.0124H86.1898C86.7644 15.0124 86.941 15.1449 86.941 16.0355V16.4596C86.941 17.3502 86.7644 17.5941 86.1898 17.7054C85.972 17.7477 85.7498 17.7628 85.5283 17.7505C83.6518 17.7505 82.2391 16.7035 82.2391 14.1668L82.2365 3.19846Z" fill="#082F4D"/>
</svg>
