<svg width="16" height="14" viewBox="0 0 16 14" fill="none" xmlns="http://www.w3.org/2000/svg">
<path d="M0.500001 4.74551C0.499606 4.15466 0.615765 3.56954 0.841826 3.02365C1.06789 2.47775 1.39941 1.98182 1.81741 1.56423C2.23541 1.14665 2.73168 0.815624 3.2778 0.590108C3.82392 0.364593 4.40915 0.24902 5 0.250006H11C13.4848 0.250006 15.5 2.27126 15.5 4.74551V13.75H5C2.51525 13.75 0.500001 11.7288 0.500001 9.25451V4.74551ZM14 12.25V4.74551C13.998 3.95088 13.6812 3.18943 13.1189 2.62797C12.5565 2.0665 11.7946 1.7508 11 1.75001H5C4.60614 1.74902 4.21595 1.82579 3.85182 1.97593C3.48769 2.12606 3.15678 2.3466 2.87807 2.62489C2.59936 2.90319 2.37832 3.23377 2.22764 3.59767C2.07696 3.96157 1.9996 4.35164 2 4.74551V9.25451C2.00199 10.0491 2.31884 10.8106 2.88114 11.372C3.44345 11.9335 4.20537 12.2492 5 12.25H14ZM9.5 6.25001H11V7.75001H9.5V6.25001ZM5 6.25001H6.5V7.75001H5V6.25001Z" fill="white"/>
</svg>
