<svg width="1193" height="764" viewBox="0 0 1193 764" fill="none" xmlns="http://www.w3.org/2000/svg">
<g clip-path="url(#clip0_6190_1471)">
<rect width="56.7768" height="56.7768" stroke="#C5C5C5" stroke-opacity="0.06" stroke-width="1.13554"/>
<rect x="56.777" y="6.10352e-05" width="56.7768" height="56.7768" stroke="#C5C5C5" stroke-opacity="0.06" stroke-width="1.13554"/>
<rect x="113.553" y="6.10352e-05" width="56.7768" height="56.7768" stroke="#C5C5C5" stroke-opacity="0.06" stroke-width="1.13554"/>
<rect x="170.33" y="6.10352e-05" width="56.7768" height="56.7768" stroke="#C5C5C5" stroke-opacity="0.06" stroke-width="1.13554"/>
<rect x="227.107" y="6.10352e-05" width="56.7768" height="56.7768" stroke="#C5C5C5" stroke-opacity="0.06" stroke-width="1.13554"/>
<rect x="283.884" y="6.10352e-05" width="56.7768" height="56.7768" stroke="#C5C5C5" stroke-opacity="0.06" stroke-width="1.13554"/>
<rect x="340.661" y="6.10352e-05" width="56.7768" height="56.7768" stroke="#C5C5C5" stroke-opacity="0.06" stroke-width="1.13554"/>
<rect x="397.437" y="6.10352e-05" width="56.7768" height="56.7768" stroke="#C5C5C5" stroke-opacity="0.06" stroke-width="1.13554"/>
<rect x="454.214" y="6.10352e-05" width="56.7768" height="56.7768" stroke="#C5C5C5" stroke-opacity="0.06" stroke-width="1.13554"/>
<rect x="510.991" y="6.10352e-05" width="56.7768" height="56.7768" stroke="#C5C5C5" stroke-opacity="0.06" stroke-width="1.13554"/>
<rect x="567.768" y="6.10352e-05" width="56.7768" height="56.7768" stroke="#C5C5C5" stroke-opacity="0.06" stroke-width="1.13554"/>
<rect x="624.545" y="6.10352e-05" width="56.7768" height="56.7768" stroke="#C5C5C5" stroke-opacity="0.06" stroke-width="1.13554"/>
<rect x="681.321" y="6.10352e-05" width="56.7768" height="56.7768" stroke="#C5C5C5" stroke-opacity="0.06" stroke-width="1.13554"/>
<rect x="738.098" y="6.10352e-05" width="56.7768" height="56.7768" stroke="#C5C5C5" stroke-opacity="0.06" stroke-width="1.13554"/>
<rect x="794.875" width="56.7768" height="56.7768" stroke="#C5C5C5" stroke-opacity="0.06" stroke-width="1.13554"/>
<rect x="851.652" width="56.7768" height="56.7768" stroke="#C5C5C5" stroke-opacity="0.06" stroke-width="1.13554"/>
<rect x="908.429" y="6.10352e-05" width="56.7768" height="56.7768" stroke="#C5C5C5" stroke-opacity="0.06" stroke-width="1.13554"/>
<rect x="965.206" y="6.10352e-05" width="56.7768" height="56.7768" stroke="#C5C5C5" stroke-opacity="0.06" stroke-width="1.13554"/>
<rect x="1021.98" width="56.7768" height="56.7768" stroke="#C5C5C5" stroke-opacity="0.06" stroke-width="1.13554"/>
<rect x="1078.76" width="56.7768" height="56.7768" stroke="#C5C5C5" stroke-opacity="0.06" stroke-width="1.13554"/>
<rect x="1135.54" y="6.10352e-05" width="56.7768" height="56.7768" stroke="#C5C5C5" stroke-opacity="0.06" stroke-width="1.13554"/>
<rect y="56.7769" width="56.7768" height="56.7768" stroke="#C5C5C5" stroke-opacity="0.06" stroke-width="1.13554"/>
<rect x="56.777" y="56.777" width="56.7768" height="56.7768" stroke="#C5C5C5" stroke-opacity="0.06" stroke-width="1.13554"/>
<rect x="113.553" y="56.777" width="56.7768" height="56.7768" fill="#1F1E1E" fill-opacity="0.05" stroke="#C5C5C5" stroke-opacity="0.06" stroke-width="1.13554"/>
<rect x="170.33" y="56.777" width="56.7768" height="56.7768" stroke="#C5C5C5" stroke-opacity="0.06" stroke-width="1.13554"/>
<rect x="227.107" y="56.777" width="56.7768" height="56.7768" stroke="#C5C5C5" stroke-opacity="0.06" stroke-width="1.13554"/>
<rect x="283.884" y="56.777" width="56.7768" height="56.7768" stroke="#C5C5C5" stroke-opacity="0.06" stroke-width="1.13554"/>
<rect x="340.661" y="56.777" width="56.7768" height="56.7768" stroke="#C5C5C5" stroke-opacity="0.06" stroke-width="1.13554"/>
<rect x="397.437" y="56.777" width="56.7768" height="56.7768" stroke="#C5C5C5" stroke-opacity="0.06" stroke-width="1.13554"/>
<rect x="454.214" y="56.777" width="56.7768" height="56.7768" stroke="#C5C5C5" stroke-opacity="0.06" stroke-width="1.13554"/>
<rect x="510.991" y="56.777" width="56.7768" height="56.7768" fill="#1F1E1E" fill-opacity="0.05" stroke="#C5C5C5" stroke-opacity="0.06" stroke-width="1.13554"/>
<rect x="567.768" y="56.777" width="56.7768" height="56.7768" stroke="#C5C5C5" stroke-opacity="0.06" stroke-width="1.13554"/>
<rect x="624.545" y="56.7769" width="56.7768" height="56.7768" stroke="#C5C5C5" stroke-opacity="0.06" stroke-width="1.13554"/>
<rect x="681.322" y="56.7769" width="56.7768" height="56.7768" stroke="#C5C5C5" stroke-opacity="0.06" stroke-width="1.13554"/>
<rect x="738.098" y="56.7769" width="56.7768" height="56.7768" stroke="#C5C5C5" stroke-opacity="0.06" stroke-width="1.13554"/>
<rect x="794.875" y="56.7769" width="56.7768" height="56.7768" stroke="#C5C5C5" stroke-opacity="0.06" stroke-width="1.13554"/>
<rect x="851.652" y="56.7769" width="56.7768" height="56.7768" stroke="#C5C5C5" stroke-opacity="0.06" stroke-width="1.13554"/>
<rect x="908.429" y="56.7769" width="56.7768" height="56.7768" stroke="#C5C5C5" stroke-opacity="0.06" stroke-width="1.13554"/>
<rect x="965.205" y="56.7769" width="56.7768" height="56.7768" stroke="#C5C5C5" stroke-opacity="0.06" stroke-width="1.13554"/>
<rect x="1021.98" y="56.7769" width="56.7768" height="56.7768" stroke="#C5C5C5" stroke-opacity="0.06" stroke-width="1.13554"/>
<rect x="1078.76" y="56.7769" width="56.7768" height="56.7768" stroke="#C5C5C5" stroke-opacity="0.06" stroke-width="1.13554"/>
<rect y="113.554" width="56.7768" height="56.7768" stroke="#C5C5C5" stroke-opacity="0.06" stroke-width="1.13554"/>
<rect x="56.777" y="113.554" width="56.7768" height="56.7768" stroke="#C5C5C5" stroke-opacity="0.06" stroke-width="1.13554"/>
<rect x="113.553" y="113.554" width="56.7768" height="56.7768" stroke="#C5C5C5" stroke-opacity="0.06" stroke-width="1.13554"/>
<rect x="170.33" y="113.554" width="56.7768" height="56.7768" stroke="#C5C5C5" stroke-opacity="0.06" stroke-width="1.13554"/>
<rect x="227.107" y="113.554" width="56.7768" height="56.7768" stroke="#C5C5C5" stroke-opacity="0.06" stroke-width="1.13554"/>
<rect x="283.884" y="113.554" width="56.7768" height="56.7768" stroke="#C5C5C5" stroke-opacity="0.06" stroke-width="1.13554"/>
<rect x="340.661" y="113.554" width="56.7768" height="56.7768" stroke="#C5C5C5" stroke-opacity="0.06" stroke-width="1.13554"/>
<rect x="397.437" y="113.554" width="56.7768" height="56.7768" stroke="#C5C5C5" stroke-opacity="0.06" stroke-width="1.13554"/>
<rect x="454.214" y="113.554" width="56.7768" height="56.7768" stroke="#C5C5C5" stroke-opacity="0.06" stroke-width="1.13554"/>
<rect x="510.991" y="113.554" width="56.7768" height="56.7768" stroke="#C5C5C5" stroke-opacity="0.06" stroke-width="1.13554"/>
<rect x="567.768" y="113.554" width="56.7768" height="56.7768" stroke="#C5C5C5" stroke-opacity="0.06" stroke-width="1.13554"/>
<rect x="624.545" y="113.554" width="56.7768" height="56.7768" stroke="#C5C5C5" stroke-opacity="0.06" stroke-width="1.13554"/>
<rect x="681.321" y="113.554" width="56.7768" height="56.7768" stroke="#C5C5C5" stroke-opacity="0.06" stroke-width="1.13554"/>
<rect x="738.098" y="113.554" width="56.7768" height="56.7768" stroke="#C5C5C5" stroke-opacity="0.06" stroke-width="1.13554"/>
<rect x="794.875" y="113.554" width="56.7768" height="56.7768" stroke="#C5C5C5" stroke-opacity="0.06" stroke-width="1.13554"/>
<rect x="851.652" y="113.554" width="56.7768" height="56.7768" stroke="#C5C5C5" stroke-opacity="0.06" stroke-width="1.13554"/>
<rect x="908.429" y="113.554" width="56.7768" height="56.7768" fill="#1F1E1E" fill-opacity="0.05" stroke="#C5C5C5" stroke-opacity="0.06" stroke-width="1.13554"/>
<rect x="965.206" y="113.554" width="56.7768" height="56.7768" stroke="#C5C5C5" stroke-opacity="0.06" stroke-width="1.13554"/>
<rect x="1021.98" y="113.554" width="56.7768" height="56.7768" stroke="#C5C5C5" stroke-opacity="0.06" stroke-width="1.13554"/>
<rect x="1078.76" y="113.554" width="56.7768" height="56.7768" stroke="#C5C5C5" stroke-opacity="0.06" stroke-width="1.13554"/>
<rect x="1135.54" y="113.554" width="56.7768" height="56.7768" stroke="#C5C5C5" stroke-opacity="0.06" stroke-width="1.13554"/>
<rect y="170.33" width="56.7768" height="56.7768" stroke="#C5C5C5" stroke-opacity="0.06" stroke-width="1.13554"/>
<rect x="56.777" y="170.33" width="56.7768" height="56.7768" stroke="#C5C5C5" stroke-opacity="0.06" stroke-width="1.13554"/>
<rect x="113.553" y="170.33" width="56.7768" height="56.7768" stroke="#C5C5C5" stroke-opacity="0.06" stroke-width="1.13554"/>
<rect x="170.33" y="170.33" width="56.7768" height="56.7768" stroke="#C5C5C5" stroke-opacity="0.06" stroke-width="1.13554"/>
<rect x="227.107" y="170.33" width="56.7768" height="56.7768" stroke="#C5C5C5" stroke-opacity="0.06" stroke-width="1.13554"/>
<rect x="283.884" y="170.33" width="56.7768" height="56.7768" stroke="#C5C5C5" stroke-opacity="0.06" stroke-width="1.13554"/>
<rect x="340.661" y="170.33" width="56.7768" height="56.7768" stroke="#C5C5C5" stroke-opacity="0.06" stroke-width="1.13554"/>
<rect x="397.437" y="170.33" width="56.7768" height="56.7768" stroke="#C5C5C5" stroke-opacity="0.06" stroke-width="1.13554"/>
<rect x="454.214" y="170.33" width="56.7768" height="56.7768" stroke="#C5C5C5" stroke-opacity="0.06" stroke-width="1.13554"/>
<rect x="510.991" y="170.33" width="56.7768" height="56.7768" stroke="#C5C5C5" stroke-opacity="0.06" stroke-width="1.13554"/>
<rect x="567.768" y="170.33" width="56.7768" height="56.7768" stroke="#C5C5C5" stroke-opacity="0.06" stroke-width="1.13554"/>
<rect x="624.545" y="170.33" width="56.7768" height="56.7768" stroke="#C5C5C5" stroke-opacity="0.06" stroke-width="1.13554"/>
<rect x="681.321" y="170.33" width="56.7768" height="56.7768" stroke="#C5C5C5" stroke-opacity="0.06" stroke-width="1.13554"/>
<rect x="738.098" y="170.33" width="56.7768" height="56.7768" stroke="#C5C5C5" stroke-opacity="0.06" stroke-width="1.13554"/>
<rect x="794.875" y="170.33" width="56.7768" height="56.7768" stroke="#C5C5C5" stroke-opacity="0.06" stroke-width="1.13554"/>
<rect x="851.652" y="170.33" width="56.7768" height="56.7768" stroke="#C5C5C5" stroke-opacity="0.06" stroke-width="1.13554"/>
<rect x="908.429" y="170.33" width="56.7768" height="56.7768" stroke="#C5C5C5" stroke-opacity="0.06" stroke-width="1.13554"/>
<rect x="965.206" y="170.33" width="56.7768" height="56.7768" stroke="#C5C5C5" stroke-opacity="0.06" stroke-width="1.13554"/>
<rect x="1021.98" y="170.33" width="56.7768" height="56.7768" stroke="#C5C5C5" stroke-opacity="0.06" stroke-width="1.13554"/>
<rect x="1078.76" y="170.33" width="56.7768" height="56.7768" stroke="#C5C5C5" stroke-opacity="0.06" stroke-width="1.13554"/>
<rect x="1135.54" y="170.33" width="56.7768" height="56.7768" stroke="#C5C5C5" stroke-opacity="0.06" stroke-width="1.13554"/>
<rect y="227.108" width="56.7768" height="56.7768" stroke="#C5C5C5" stroke-opacity="0.06" stroke-width="1.13554"/>
<rect x="56.777" y="227.108" width="56.7768" height="56.7768" stroke="#C5C5C5" stroke-opacity="0.06" stroke-width="1.13554"/>
<rect x="113.553" y="227.108" width="56.7768" height="56.7768" stroke="#C5C5C5" stroke-opacity="0.06" stroke-width="1.13554"/>
<rect x="170.33" y="227.108" width="56.7768" height="56.7768" fill="#1F1E1E" fill-opacity="0.05" stroke="#C5C5C5" stroke-opacity="0.06" stroke-width="1.13554"/>
<rect x="227.107" y="227.108" width="56.7768" height="56.7768" stroke="#C5C5C5" stroke-opacity="0.06" stroke-width="1.13554"/>
<rect x="283.884" y="227.108" width="56.7768" height="56.7768" stroke="#C5C5C5" stroke-opacity="0.06" stroke-width="1.13554"/>
<rect x="340.661" y="227.108" width="56.7768" height="56.7768" stroke="#C5C5C5" stroke-opacity="0.06" stroke-width="1.13554"/>
<rect x="397.437" y="227.108" width="56.7768" height="56.7768" stroke="#C5C5C5" stroke-opacity="0.06" stroke-width="1.13554"/>
<rect x="454.214" y="227.108" width="56.7768" height="56.7768" stroke="#C5C5C5" stroke-opacity="0.06" stroke-width="1.13554"/>
<rect x="510.991" y="227.108" width="56.7768" height="56.7768" stroke="#C5C5C5" stroke-opacity="0.06" stroke-width="1.13554"/>
<rect x="567.768" y="227.108" width="56.7768" height="56.7768" stroke="#C5C5C5" stroke-opacity="0.06" stroke-width="1.13554"/>
<rect x="624.545" y="227.108" width="56.7768" height="56.7768" stroke="#C5C5C5" stroke-opacity="0.06" stroke-width="1.13554"/>
<rect x="681.321" y="227.108" width="56.7768" height="56.7768" fill="#1F1E1E" fill-opacity="0.05" stroke="#C5C5C5" stroke-opacity="0.06" stroke-width="1.13554"/>
<rect x="738.098" y="227.108" width="56.7768" height="56.7768" stroke="#C5C5C5" stroke-opacity="0.06" stroke-width="1.13554"/>
<rect x="794.875" y="227.108" width="56.7768" height="56.7768" stroke="#C5C5C5" stroke-opacity="0.06" stroke-width="1.13554"/>
<rect x="851.652" y="227.108" width="56.7768" height="56.7768" stroke="#C5C5C5" stroke-opacity="0.06" stroke-width="1.13554"/>
<rect x="908.429" y="227.108" width="56.7768" height="56.7768" stroke="#C5C5C5" stroke-opacity="0.06" stroke-width="1.13554"/>
<rect x="965.206" y="227.108" width="56.7768" height="56.7768" stroke="#C5C5C5" stroke-opacity="0.06" stroke-width="1.13554"/>
<rect x="1021.98" y="227.108" width="56.7768" height="56.7768" stroke="#C5C5C5" stroke-opacity="0.06" stroke-width="1.13554"/>
<rect x="1078.76" y="227.108" width="56.7768" height="56.7768" stroke="#C5C5C5" stroke-opacity="0.06" stroke-width="1.13554"/>
<rect x="1135.54" y="227.108" width="56.7768" height="56.7768" stroke="#C5C5C5" stroke-opacity="0.06" stroke-width="1.13554"/>
<rect y="283.885" width="56.7768" height="56.7768" stroke="#C5C5C5" stroke-opacity="0.06" stroke-width="1.13554"/>
<rect x="56.777" y="283.884" width="56.7768" height="56.7768" stroke="#C5C5C5" stroke-opacity="0.06" stroke-width="1.13554"/>
<rect x="113.553" y="283.884" width="56.7768" height="56.7768" stroke="#C5C5C5" stroke-opacity="0.06" stroke-width="1.13554"/>
<rect x="170.33" y="283.884" width="56.7768" height="56.7768" stroke="#C5C5C5" stroke-opacity="0.06" stroke-width="1.13554"/>
<rect x="227.107" y="283.884" width="56.7768" height="56.7768" stroke="#C5C5C5" stroke-opacity="0.06" stroke-width="1.13554"/>
<rect x="283.884" y="283.884" width="56.7768" height="56.7768" stroke="#C5C5C5" stroke-opacity="0.06" stroke-width="1.13554"/>
<rect x="340.661" y="283.884" width="56.7768" height="56.7768" stroke="#C5C5C5" stroke-opacity="0.06" stroke-width="1.13554"/>
<rect x="397.437" y="283.884" width="56.7768" height="56.7768" stroke="#C5C5C5" stroke-opacity="0.06" stroke-width="1.13554"/>
<rect x="454.214" y="283.884" width="56.7768" height="56.7768" stroke="#C5C5C5" stroke-opacity="0.06" stroke-width="1.13554"/>
<rect x="510.991" y="283.884" width="56.7768" height="56.7768" stroke="#C5C5C5" stroke-opacity="0.06" stroke-width="1.13554"/>
<rect x="567.768" y="283.884" width="56.7768" height="56.7768" stroke="#C5C5C5" stroke-opacity="0.06" stroke-width="1.13554"/>
<rect x="624.545" y="283.884" width="56.7768" height="56.7768" stroke="#C5C5C5" stroke-opacity="0.06" stroke-width="1.13554"/>
<rect x="681.321" y="283.884" width="56.7768" height="56.7768" stroke="#C5C5C5" stroke-opacity="0.06" stroke-width="1.13554"/>
<rect x="738.098" y="283.884" width="56.7768" height="56.7768" stroke="#C5C5C5" stroke-opacity="0.06" stroke-width="1.13554"/>
<rect x="794.875" y="283.885" width="56.7768" height="56.7768" stroke="#C5C5C5" stroke-opacity="0.06" stroke-width="1.13554"/>
<rect x="851.652" y="283.885" width="56.7768" height="56.7768" stroke="#C5C5C5" stroke-opacity="0.06" stroke-width="1.13554"/>
<rect x="908.429" y="283.884" width="56.7768" height="56.7768" stroke="#C5C5C5" stroke-opacity="0.06" stroke-width="1.13554"/>
<rect x="965.206" y="283.884" width="56.7768" height="56.7768" stroke="#C5C5C5" stroke-opacity="0.06" stroke-width="1.13554"/>
<rect x="1021.98" y="283.885" width="56.7768" height="56.7768" fill="#1F1E1E" fill-opacity="0.05" stroke="#C5C5C5" stroke-opacity="0.06" stroke-width="1.13554"/>
<rect x="1078.76" y="283.885" width="56.7768" height="56.7768" stroke="#C5C5C5" stroke-opacity="0.06" stroke-width="1.13554"/>
<rect x="1135.54" y="283.884" width="56.7768" height="56.7768" stroke="#C5C5C5" stroke-opacity="0.06" stroke-width="1.13554"/>
<rect y="340.66" width="56.7768" height="56.7768" stroke="#C5C5C5" stroke-opacity="0.06" stroke-width="1.13554"/>
<rect x="56.777" y="340.66" width="56.7768" height="56.7768" stroke="#C5C5C5" stroke-opacity="0.06" stroke-width="1.13554"/>
<rect x="113.553" y="340.66" width="56.7768" height="56.7768" stroke="#C5C5C5" stroke-opacity="0.06" stroke-width="1.13554"/>
<rect x="170.33" y="340.66" width="56.7768" height="56.7768" stroke="#C5C5C5" stroke-opacity="0.06" stroke-width="1.13554"/>
<rect x="227.107" y="340.66" width="56.7768" height="56.7768" stroke="#C5C5C5" stroke-opacity="0.06" stroke-width="1.13554"/>
<rect x="283.884" y="340.66" width="56.7768" height="56.7768" stroke="#C5C5C5" stroke-opacity="0.06" stroke-width="1.13554"/>
<rect x="340.661" y="340.66" width="56.7768" height="56.7768" stroke="#C5C5C5" stroke-opacity="0.06" stroke-width="1.13554"/>
<rect x="397.437" y="340.66" width="56.7768" height="56.7768" stroke="#C5C5C5" stroke-opacity="0.06" stroke-width="1.13554"/>
<rect x="454.214" y="340.66" width="56.7768" height="56.7768" stroke="#C5C5C5" stroke-opacity="0.06" stroke-width="1.13554"/>
<rect x="510.991" y="340.66" width="56.7768" height="56.7768" stroke="#C5C5C5" stroke-opacity="0.06" stroke-width="1.13554"/>
<rect x="567.768" y="340.66" width="56.7768" height="56.7768" stroke="#C5C5C5" stroke-opacity="0.06" stroke-width="1.13554"/>
<rect x="624.545" y="340.66" width="56.7768" height="56.7768" stroke="#C5C5C5" stroke-opacity="0.06" stroke-width="1.13554"/>
<rect x="681.321" y="340.66" width="56.7768" height="56.7768" stroke="#C5C5C5" stroke-opacity="0.06" stroke-width="1.13554"/>
<rect x="738.098" y="340.66" width="56.7768" height="56.7768" stroke="#C5C5C5" stroke-opacity="0.06" stroke-width="1.13554"/>
<rect x="794.875" y="340.66" width="56.7768" height="56.7768" stroke="#C5C5C5" stroke-opacity="0.06" stroke-width="1.13554"/>
<rect x="851.652" y="340.66" width="56.7768" height="56.7768" stroke="#C5C5C5" stroke-opacity="0.06" stroke-width="1.13554"/>
<rect x="908.429" y="340.66" width="56.7768" height="56.7768" stroke="#C5C5C5" stroke-opacity="0.06" stroke-width="1.13554"/>
<rect x="965.206" y="340.66" width="56.7768" height="56.7768" stroke="#C5C5C5" stroke-opacity="0.06" stroke-width="1.13554"/>
<rect x="1021.98" y="340.66" width="56.7768" height="56.7768" stroke="#C5C5C5" stroke-opacity="0.06" stroke-width="1.13554"/>
<rect x="1078.76" y="340.66" width="56.7768" height="56.7768" stroke="#C5C5C5" stroke-opacity="0.06" stroke-width="1.13554"/>
<rect x="1135.54" y="340.66" width="56.7768" height="56.7768" stroke="#C5C5C5" stroke-opacity="0.06" stroke-width="1.13554"/>
<rect y="397.437" width="56.7768" height="56.7768" stroke="#C5C5C5" stroke-opacity="0.06" stroke-width="1.13554"/>
<rect x="56.7769" y="397.437" width="56.7768" height="56.7768" stroke="#C5C5C5" stroke-opacity="0.06" stroke-width="1.13554"/>
<rect x="113.554" y="397.437" width="56.7768" height="56.7768" stroke="#C5C5C5" stroke-opacity="0.06" stroke-width="1.13554"/>
<rect x="170.33" y="397.437" width="56.7768" height="56.7768" stroke="#C5C5C5" stroke-opacity="0.06" stroke-width="1.13554"/>
<rect x="227.107" y="397.437" width="56.7768" height="56.7768" stroke="#C5C5C5" stroke-opacity="0.06" stroke-width="1.13554"/>
<rect x="283.884" y="397.437" width="56.7768" height="56.7768" stroke="#C5C5C5" stroke-opacity="0.06" stroke-width="1.13554"/>
<rect x="340.661" y="397.437" width="56.7768" height="56.7768" stroke="#C5C5C5" stroke-opacity="0.06" stroke-width="1.13554"/>
<rect x="397.438" y="397.437" width="56.7768" height="56.7768" stroke="#C5C5C5" stroke-opacity="0.06" stroke-width="1.13554"/>
<rect x="454.214" y="397.437" width="56.7768" height="56.7768" fill="#1F1E1E" fill-opacity="0.05" stroke="#C5C5C5" stroke-opacity="0.06" stroke-width="1.13554"/>
<rect x="510.991" y="397.437" width="56.7768" height="56.7768" stroke="#C5C5C5" stroke-opacity="0.06" stroke-width="1.13554"/>
<rect x="567.768" y="397.437" width="56.7768" height="56.7768" stroke="#C5C5C5" stroke-opacity="0.06" stroke-width="1.13554"/>
<rect x="624.545" y="397.437" width="56.7768" height="56.7768" stroke="#C5C5C5" stroke-opacity="0.06" stroke-width="1.13554"/>
<rect x="681.321" y="397.437" width="56.7768" height="56.7768" stroke="#C5C5C5" stroke-opacity="0.06" stroke-width="1.13554"/>
<rect x="738.098" y="397.437" width="56.7768" height="56.7768" stroke="#C5C5C5" stroke-opacity="0.06" stroke-width="1.13554"/>
<rect x="794.875" y="397.437" width="56.7768" height="56.7768" stroke="#C5C5C5" stroke-opacity="0.06" stroke-width="1.13554"/>
<rect x="851.652" y="397.437" width="56.7768" height="56.7768" stroke="#C5C5C5" stroke-opacity="0.06" stroke-width="1.13554"/>
<rect x="908.429" y="397.437" width="56.7768" height="56.7768" stroke="#C5C5C5" stroke-opacity="0.06" stroke-width="1.13554"/>
<rect x="965.205" y="397.437" width="56.7768" height="56.7768" stroke="#C5C5C5" stroke-opacity="0.06" stroke-width="1.13554"/>
<rect x="1021.98" y="397.437" width="56.7768" height="56.7768" stroke="#C5C5C5" stroke-opacity="0.06" stroke-width="1.13554"/>
<rect x="1078.76" y="397.437" width="56.7768" height="56.7768" stroke="#C5C5C5" stroke-opacity="0.06" stroke-width="1.13554"/>
<rect x="1135.54" y="397.437" width="56.7768" height="56.7768" stroke="#C5C5C5" stroke-opacity="0.06" stroke-width="1.13554"/>
<rect y="454.214" width="56.7768" height="56.7768" stroke="#C5C5C5" stroke-opacity="0.06" stroke-width="1.13554"/>
<rect x="56.777" y="454.214" width="56.7768" height="56.7768" stroke="#C5C5C5" stroke-opacity="0.06" stroke-width="1.13554"/>
<rect x="113.553" y="454.214" width="56.7768" height="56.7768" stroke="#C5C5C5" stroke-opacity="0.06" stroke-width="1.13554"/>
<rect x="170.33" y="454.214" width="56.7768" height="56.7768" stroke="#C5C5C5" stroke-opacity="0.06" stroke-width="1.13554"/>
<rect x="227.107" y="454.214" width="56.7768" height="56.7768" fill="#1F1E1E" fill-opacity="0.05" stroke="#C5C5C5" stroke-opacity="0.06" stroke-width="1.13554"/>
<rect x="283.884" y="454.214" width="56.7768" height="56.7768" stroke="#C5C5C5" stroke-opacity="0.06" stroke-width="1.13554"/>
<rect x="340.661" y="454.214" width="56.7768" height="56.7768" stroke="#C5C5C5" stroke-opacity="0.06" stroke-width="1.13554"/>
<rect x="397.437" y="454.214" width="56.7768" height="56.7768" stroke="#C5C5C5" stroke-opacity="0.06" stroke-width="1.13554"/>
<rect x="454.214" y="454.214" width="56.7768" height="56.7768" stroke="#C5C5C5" stroke-opacity="0.06" stroke-width="1.13554"/>
<rect x="510.991" y="454.214" width="56.7768" height="56.7768" stroke="#C5C5C5" stroke-opacity="0.06" stroke-width="1.13554"/>
<rect x="567.768" y="454.214" width="56.7768" height="56.7768" stroke="#C5C5C5" stroke-opacity="0.06" stroke-width="1.13554"/>
<rect x="624.545" y="454.214" width="56.7768" height="56.7768" stroke="#C5C5C5" stroke-opacity="0.06" stroke-width="1.13554"/>
<rect x="681.321" y="454.214" width="56.7768" height="56.7768" stroke="#C5C5C5" stroke-opacity="0.06" stroke-width="1.13554"/>
<rect x="738.098" y="454.214" width="56.7768" height="56.7768" stroke="#C5C5C5" stroke-opacity="0.06" stroke-width="1.13554"/>
<rect x="794.875" y="454.214" width="56.7768" height="56.7768" stroke="#C5C5C5" stroke-opacity="0.06" stroke-width="1.13554"/>
<rect x="851.652" y="454.214" width="56.7768" height="56.7768" stroke="#C5C5C5" stroke-opacity="0.06" stroke-width="1.13554"/>
<rect x="908.429" y="454.214" width="56.7768" height="56.7768" stroke="#C5C5C5" stroke-opacity="0.06" stroke-width="1.13554"/>
<rect x="965.206" y="454.214" width="56.7768" height="56.7768" stroke="#C5C5C5" stroke-opacity="0.06" stroke-width="1.13554"/>
<rect x="1021.98" y="454.214" width="56.7768" height="56.7768" stroke="#C5C5C5" stroke-opacity="0.06" stroke-width="1.13554"/>
<rect x="1078.76" y="454.214" width="56.7768" height="56.7768" stroke="#C5C5C5" stroke-opacity="0.06" stroke-width="1.13554"/>
<rect x="1135.54" y="454.214" width="56.7768" height="56.7768" stroke="#C5C5C5" stroke-opacity="0.06" stroke-width="1.13554"/>
<rect y="510.991" width="56.7768" height="56.7768" stroke="#C5C5C5" stroke-opacity="0.06" stroke-width="1.13554"/>
<rect x="56.777" y="510.991" width="56.7768" height="56.7768" stroke="#C5C5C5" stroke-opacity="0.06" stroke-width="1.13554"/>
<rect x="113.553" y="510.991" width="56.7768" height="56.7768" stroke="#C5C5C5" stroke-opacity="0.06" stroke-width="1.13554"/>
<rect x="170.33" y="510.991" width="56.7768" height="56.7768" stroke="#C5C5C5" stroke-opacity="0.06" stroke-width="1.13554"/>
<rect x="227.107" y="510.991" width="56.7768" height="56.7768" stroke="#C5C5C5" stroke-opacity="0.06" stroke-width="1.13554"/>
<rect x="283.884" y="510.991" width="56.7768" height="56.7768" stroke="#C5C5C5" stroke-opacity="0.06" stroke-width="1.13554"/>
<rect x="340.661" y="510.991" width="56.7768" height="56.7768" stroke="#C5C5C5" stroke-opacity="0.06" stroke-width="1.13554"/>
<rect x="397.437" y="510.991" width="56.7768" height="56.7768" stroke="#C5C5C5" stroke-opacity="0.06" stroke-width="1.13554"/>
<rect x="454.214" y="510.991" width="56.7768" height="56.7768" stroke="#C5C5C5" stroke-opacity="0.06" stroke-width="1.13554"/>
<rect x="510.991" y="510.991" width="56.7768" height="56.7768" stroke="#C5C5C5" stroke-opacity="0.06" stroke-width="1.13554"/>
<rect x="567.768" y="510.991" width="56.7768" height="56.7768" stroke="#C5C5C5" stroke-opacity="0.06" stroke-width="1.13554"/>
<rect x="624.545" y="510.991" width="56.7768" height="56.7768" stroke="#C5C5C5" stroke-opacity="0.06" stroke-width="1.13554"/>
<rect x="681.321" y="510.991" width="56.7768" height="56.7768" stroke="#C5C5C5" stroke-opacity="0.06" stroke-width="1.13554"/>
<rect x="738.098" y="510.991" width="56.7768" height="56.7768" stroke="#C5C5C5" stroke-opacity="0.06" stroke-width="1.13554"/>
<rect x="794.875" y="510.991" width="56.7768" height="56.7768" stroke="#C5C5C5" stroke-opacity="0.06" stroke-width="1.13554"/>
<rect x="851.652" y="510.991" width="56.7768" height="56.7768" stroke="#C5C5C5" stroke-opacity="0.06" stroke-width="1.13554"/>
<rect x="908.429" y="510.991" width="56.7768" height="56.7768" stroke="#C5C5C5" stroke-opacity="0.06" stroke-width="1.13554"/>
<rect x="965.206" y="510.991" width="56.7768" height="56.7768" stroke="#C5C5C5" stroke-opacity="0.06" stroke-width="1.13554"/>
<rect x="1021.98" y="510.991" width="56.7768" height="56.7768" stroke="#C5C5C5" stroke-opacity="0.06" stroke-width="1.13554"/>
<rect x="1078.76" y="510.991" width="56.7768" height="56.7768" stroke="#C5C5C5" stroke-opacity="0.06" stroke-width="1.13554"/>
<rect x="1135.54" y="510.991" width="56.7768" height="56.7768" stroke="#C5C5C5" stroke-opacity="0.06" stroke-width="1.13554"/>
<rect y="567.768" width="56.7768" height="56.7768" stroke="#C5C5C5" stroke-opacity="0.06" stroke-width="1.13554"/>
<rect x="56.777" y="567.768" width="56.7768" height="56.7768" stroke="#C5C5C5" stroke-opacity="0.06" stroke-width="1.13554"/>
<rect x="113.553" y="567.768" width="56.7768" height="56.7768" stroke="#C5C5C5" stroke-opacity="0.06" stroke-width="1.13554"/>
<rect x="170.33" y="567.768" width="56.7768" height="56.7768" stroke="#C5C5C5" stroke-opacity="0.06" stroke-width="1.13554"/>
<rect x="227.107" y="567.768" width="56.7768" height="56.7768" stroke="#C5C5C5" stroke-opacity="0.06" stroke-width="1.13554"/>
<rect x="283.884" y="567.768" width="56.7768" height="56.7768" stroke="#C5C5C5" stroke-opacity="0.06" stroke-width="1.13554"/>
<rect x="340.661" y="567.768" width="56.7768" height="56.7768" stroke="#C5C5C5" stroke-opacity="0.06" stroke-width="1.13554"/>
<rect x="397.437" y="567.768" width="56.7768" height="56.7768" stroke="#C5C5C5" stroke-opacity="0.06" stroke-width="1.13554"/>
<rect x="454.214" y="567.768" width="56.7768" height="56.7768" stroke="#C5C5C5" stroke-opacity="0.06" stroke-width="1.13554"/>
<rect x="510.991" y="567.768" width="56.7768" height="56.7768" stroke="#C5C5C5" stroke-opacity="0.06" stroke-width="1.13554"/>
<rect x="567.768" y="567.768" width="56.7768" height="56.7768" stroke="#C5C5C5" stroke-opacity="0.06" stroke-width="1.13554"/>
<rect x="624.545" y="567.768" width="56.7768" height="56.7768" stroke="#C5C5C5" stroke-opacity="0.06" stroke-width="1.13554"/>
<rect x="681.321" y="567.768" width="56.7768" height="56.7768" stroke="#C5C5C5" stroke-opacity="0.06" stroke-width="1.13554"/>
<rect x="738.098" y="567.768" width="56.7768" height="56.7768" stroke="#C5C5C5" stroke-opacity="0.06" stroke-width="1.13554"/>
<rect x="794.875" y="567.768" width="56.7768" height="56.7768" stroke="#C5C5C5" stroke-opacity="0.06" stroke-width="1.13554"/>
<rect x="851.652" y="567.768" width="56.7768" height="56.7768" stroke="#C5C5C5" stroke-opacity="0.06" stroke-width="1.13554"/>
<rect x="908.429" y="567.768" width="56.7768" height="56.7768" stroke="#C5C5C5" stroke-opacity="0.06" stroke-width="1.13554"/>
<rect x="965.206" y="567.768" width="56.7768" height="56.7768" stroke="#C5C5C5" stroke-opacity="0.06" stroke-width="1.13554"/>
<rect x="1021.98" y="567.768" width="56.7768" height="56.7768" stroke="#C5C5C5" stroke-opacity="0.06" stroke-width="1.13554"/>
<rect x="1078.76" y="567.768" width="56.7768" height="56.7768" stroke="#C5C5C5" stroke-opacity="0.06" stroke-width="1.13554"/>
<rect x="1135.54" y="567.768" width="56.7768" height="56.7768" stroke="#C5C5C5" stroke-opacity="0.06" stroke-width="1.13554"/>
<rect y="624.545" width="56.7768" height="56.7768" stroke="#C5C5C5" stroke-opacity="0.06" stroke-width="1.13554"/>
<rect x="56.777" y="624.545" width="56.7768" height="56.7768" stroke="#C5C5C5" stroke-opacity="0.06" stroke-width="1.13554"/>
<rect x="113.553" y="624.545" width="56.7768" height="56.7768" stroke="#C5C5C5" stroke-opacity="0.06" stroke-width="1.13554"/>
<rect x="170.33" y="624.545" width="56.7768" height="56.7768" stroke="#C5C5C5" stroke-opacity="0.06" stroke-width="1.13554"/>
<rect x="227.107" y="624.545" width="56.7768" height="56.7768" stroke="#C5C5C5" stroke-opacity="0.06" stroke-width="1.13554"/>
<rect x="283.884" y="624.545" width="56.7768" height="56.7768" stroke="#C5C5C5" stroke-opacity="0.06" stroke-width="1.13554"/>
<rect x="340.661" y="624.545" width="56.7768" height="56.7768" stroke="#C5C5C5" stroke-opacity="0.06" stroke-width="1.13554"/>
<rect x="397.437" y="624.545" width="56.7768" height="56.7768" stroke="#C5C5C5" stroke-opacity="0.06" stroke-width="1.13554"/>
<rect x="454.214" y="624.545" width="56.7768" height="56.7768" stroke="#C5C5C5" stroke-opacity="0.06" stroke-width="1.13554"/>
<rect x="510.991" y="624.545" width="56.7768" height="56.7768" stroke="#C5C5C5" stroke-opacity="0.06" stroke-width="1.13554"/>
<rect x="567.768" y="624.545" width="56.7768" height="56.7768" stroke="#C5C5C5" stroke-opacity="0.06" stroke-width="1.13554"/>
<rect x="624.545" y="624.545" width="56.7768" height="56.7768" stroke="#C5C5C5" stroke-opacity="0.06" stroke-width="1.13554"/>
<rect x="681.321" y="624.545" width="56.7768" height="56.7768" stroke="#C5C5C5" stroke-opacity="0.06" stroke-width="1.13554"/>
<rect x="738.098" y="624.545" width="56.7768" height="56.7768" stroke="#C5C5C5" stroke-opacity="0.06" stroke-width="1.13554"/>
<rect x="794.875" y="624.545" width="56.7768" height="56.7768" stroke="#C5C5C5" stroke-opacity="0.06" stroke-width="1.13554"/>
<rect x="851.652" y="624.545" width="56.7768" height="56.7768" stroke="#C5C5C5" stroke-opacity="0.06" stroke-width="1.13554"/>
<rect x="908.429" y="624.545" width="56.7768" height="56.7768" stroke="#C5C5C5" stroke-opacity="0.06" stroke-width="1.13554"/>
<rect x="965.206" y="624.545" width="56.7768" height="56.7768" stroke="#C5C5C5" stroke-opacity="0.06" stroke-width="1.13554"/>
<rect x="1021.98" y="624.545" width="56.7768" height="56.7768" stroke="#C5C5C5" stroke-opacity="0.06" stroke-width="1.13554"/>
<rect x="1078.76" y="624.545" width="56.7768" height="56.7768" stroke="#C5C5C5" stroke-opacity="0.06" stroke-width="1.13554"/>
<rect x="1135.54" y="624.545" width="56.7768" height="56.7768" stroke="#C5C5C5" stroke-opacity="0.06" stroke-width="1.13554"/>
<rect y="681.322" width="56.7768" height="56.7768" stroke="#C5C5C5" stroke-opacity="0.06" stroke-width="1.13554"/>
<rect x="56.777" y="681.322" width="56.7768" height="56.7768" stroke="#C5C5C5" stroke-opacity="0.06" stroke-width="1.13554"/>
<rect x="113.553" y="681.322" width="56.7768" height="56.7768" stroke="#C5C5C5" stroke-opacity="0.06" stroke-width="1.13554"/>
<rect x="170.33" y="681.322" width="56.7768" height="56.7768" stroke="#C5C5C5" stroke-opacity="0.06" stroke-width="1.13554"/>
<rect x="227.107" y="681.322" width="56.7768" height="56.7768" stroke="#C5C5C5" stroke-opacity="0.06" stroke-width="1.13554"/>
<rect x="283.884" y="681.322" width="56.7768" height="56.7768" stroke="#C5C5C5" stroke-opacity="0.06" stroke-width="1.13554"/>
<rect x="340.661" y="681.322" width="56.7768" height="56.7768" stroke="#C5C5C5" stroke-opacity="0.06" stroke-width="1.13554"/>
<rect x="397.437" y="681.322" width="56.7768" height="56.7768" stroke="#C5C5C5" stroke-opacity="0.06" stroke-width="1.13554"/>
<rect x="454.214" y="681.322" width="56.7768" height="56.7768" stroke="#C5C5C5" stroke-opacity="0.06" stroke-width="1.13554"/>
<rect x="510.991" y="681.322" width="56.7768" height="56.7768" stroke="#C5C5C5" stroke-opacity="0.06" stroke-width="1.13554"/>
<rect x="567.768" y="681.322" width="56.7768" height="56.7768" stroke="#C5C5C5" stroke-opacity="0.06" stroke-width="1.13554"/>
<rect x="624.545" y="681.322" width="56.7768" height="56.7768" stroke="#C5C5C5" stroke-opacity="0.06" stroke-width="1.13554"/>
<rect x="681.321" y="681.322" width="56.7768" height="56.7768" stroke="#C5C5C5" stroke-opacity="0.06" stroke-width="1.13554"/>
<rect x="738.098" y="681.322" width="56.7768" height="56.7768" stroke="#C5C5C5" stroke-opacity="0.06" stroke-width="1.13554"/>
<rect x="794.875" y="681.322" width="56.7768" height="56.7768" stroke="#C5C5C5" stroke-opacity="0.06" stroke-width="1.13554"/>
<rect x="851.652" y="681.322" width="56.7768" height="56.7768" stroke="#C5C5C5" stroke-opacity="0.06" stroke-width="1.13554"/>
<rect x="908.429" y="681.322" width="56.7768" height="56.7768" stroke="#C5C5C5" stroke-opacity="0.06" stroke-width="1.13554"/>
<rect x="965.206" y="681.322" width="56.7768" height="56.7768" stroke="#C5C5C5" stroke-opacity="0.06" stroke-width="1.13554"/>
<rect x="1021.98" y="681.322" width="56.7768" height="56.7768" stroke="#C5C5C5" stroke-opacity="0.06" stroke-width="1.13554"/>
<rect x="1078.76" y="681.322" width="56.7768" height="56.7768" stroke="#C5C5C5" stroke-opacity="0.06" stroke-width="1.13554"/>
<rect x="1135.54" y="681.322" width="56.7768" height="56.7768" stroke="#C5C5C5" stroke-opacity="0.06" stroke-width="1.13554"/>
</g>
<defs>
<clipPath id="clip0_6190_1471">
<rect width="1192.31" height="763.08" fill="white"/>
</clipPath>
</defs>
</svg>
